<?xml version="1.0" standalone="no"?>
<!DOCTYPE svg PUBLIC "-//W3C//DTD SVG 20010904//EN"
 "http://www.w3.org/TR/2001/REC-SVG-20010904/DTD/svg10.dtd">
<svg version="1.0" xmlns="http://www.w3.org/2000/svg"
 width="1024.000000pt" height="1024.000000pt" viewBox="0 0 1024.000000 1024.000000"
 preserveAspectRatio="xMidYMid meet">
<metadata>
Created by potrace 1.14, written by Peter Selinger 2001-2017
</metadata>
<g transform="translate(0.000000,1024.000000) scale(0.100000,-0.100000)"
fill="#000000" stroke="none">
<path d="M4576 9243 c-4 -4 -184 -8 -399 -8 l-393 0 -257 -256 c-141 -141
-257 -254 -257 -251 0 2 -9 -7 -21 -21 -24 -31 -83 -91 -86 -89 -2 1 -3 0 -3
-4 1 -3 -17 -19 -39 -37 -22 -18 -43 -39 -46 -47 -3 -8 -21 -26 -40 -40 -18
-14 -39 -35 -46 -47 -7 -13 -14 -21 -16 -19 -2 2 -105 -97 -228 -220 -124
-123 -229 -224 -235 -224 -5 0 -9 -3 -8 -7 4 -10 -151 -163 -163 -163 -6 0 -7
-4 -4 -10 3 -5 -1 -10 -9 -10 -9 0 -16 -5 -16 -10 0 -13 -98 -109 -105 -102
-3 3 -5 -2 -5 -11 0 -9 -6 -17 -14 -17 -16 0 -31 -34 -21 -50 3 -5 3 -10 -2
-10 -8 0 -8 -118 0 -127 3 -2 2 -17 -3 -31 -4 -15 -4 -37 1 -49 5 -13 4 -25
-2 -28 -5 -4 -6 -11 -2 -18 10 -16 10 -57 0 -57 -4 0 -5 -6 0 -12 10 -18 11
-99 0 -122 -7 -14 -6 -17 5 -10 11 6 11 5 -1 -9 -7 -9 -10 -17 -5 -17 8 0 11
-155 4 -170 -1 -3 -1 -9 0 -15 7 -27 5 -137 -2 -141 -5 -3 -5 -11 -1 -17 13
-20 11 -267 -1 -260 -7 5 -7 2 0 -8 7 -9 12 -70 12 -169 1 -341 13 -2191 15
-2277 1 -51 -2 -93 -7 -93 -4 0 24 -31 63 -70 39 -38 71 -75 71 -81 0 -7 3
-10 6 -7 5 6 101 -85 106 -100 1 -4 15 -17 30 -30 44 -37 98 -93 98 -102 0 -5
9 -12 20 -15 11 -4 18 -11 15 -16 -4 -5 1 -9 9 -9 9 0 16 -6 16 -14 0 -8 8
-17 18 -21 9 -3 28 -21 42 -39 14 -19 28 -32 32 -30 4 2 9 -5 13 -16 3 -11 13
-20 21 -20 8 0 14 -4 14 -9 0 -12 80 -91 93 -91 6 0 8 -2 5 -5 -3 -3 136 -148
308 -322 173 -173 314 -320 314 -325 0 -5 3 -8 8 -6 4 2 37 -27 73 -64 36 -37
64 -68 62 -68 -3 0 2 -7 11 -15 8 -8 19 -15 25 -15 5 0 13 -9 16 -20 4 -11 9
-19 13 -17 4 2 27 -20 52 -49 25 -29 51 -53 59 -53 8 -1 12 -4 8 -7 -3 -3 19
-28 49 -55 30 -27 51 -49 48 -49 -4 0 5 -11 20 -25 15 -14 32 -25 38 -25 6 0
9 -3 6 -6 -7 -7 124 -140 134 -136 5 1 8 -3 8 -8 0 -6 101 -111 224 -235 123
-123 221 -227 218 -230 -3 -3 -1 -5 5 -5 13 0 113 -98 113 -110 0 -6 4 -10 10
-10 13 0 59 -48 52 -54 -3 -3 0 -6 6 -6 14 0 62 -47 54 -54 -3 -3 -1 -6 5 -6
14 0 123 -109 123 -123 0 -5 3 -8 6 -5 6 6 26 -12 87 -80 20 -23 37 -40 37
-38 0 3 33 -28 73 -67 40 -40 71 -75 69 -79 -2 -5 2 -8 8 -8 11 0 327 315 375
373 11 14 23 23 27 21 4 -3 9 5 13 16 4 11 11 18 16 15 5 -4 9 -2 9 3 0 5 51
61 113 124 61 63 131 136 154 161 23 25 43 44 45 43 2 -1 17 13 35 31 17 18
30 33 28 33 -1 0 41 44 94 97 53 54 95 101 93 105 -1 5 2 8 8 8 11 0 73 60
108 104 12 16 22 25 22 20 0 -4 11 7 25 26 14 19 25 30 25 26 0 -4 7 -1 15 8
8 8 15 17 15 21 0 12 27 34 34 28 3 -4 6 -1 6 5 0 17 236 253 244 245 4 -4 4
0 1 9 -4 11 0 18 14 23 12 3 19 11 16 16 -4 5 1 9 10 9 9 0 14 3 12 8 -2 4 4
15 15 24 10 10 18 15 18 12 0 -4 9 5 20 19 11 14 94 100 184 191 89 92 162
166 161 166 -1 0 16 19 39 43 23 24 44 42 49 40 4 -2 7 0 7 5 0 6 37 48 82 93
46 46 82 87 80 92 -1 4 2 7 7 7 5 0 27 18 49 40 22 22 38 40 37 40 -1 0 15 18
37 40 22 22 44 40 49 40 5 0 9 4 9 8 0 5 81 91 181 193 99 101 188 194 196
206 8 13 19 20 24 17 5 -3 12 2 16 12 3 9 42 53 86 96 l79 79 2 767 c1 422 5
772 9 778 3 6 3 14 0 18 -11 11 -9 190 2 199 7 4 7 10 0 15 -12 8 -13 27 -3
37 4 4 4 15 0 24 -9 20 -9 42 1 58 4 6 3 14 -1 17 -7 4 -8 67 -1 86 5 16 3 36
-6 43 -6 6 -6 10 3 14 6 2 10 9 7 14 -9 14 -10 93 -2 107 5 6 5 12 0 12 -10 0
-9 52 1 68 4 7 3 12 -2 12 -10 0 -9 30 2 48 4 7 2 12 -4 12 -6 0 -8 5 -3 13
11 17 13 37 3 37 -8 0 -5 43 5 59 3 6 1 11 -6 11 -7 0 -8 5 -3 13 11 14 11 37
1 54 -4 6 -3 14 2 18 7 4 7 15 1 30 -5 14 -6 25 -2 25 6 0 7 65 2 80 -2 3 -1
10 0 15 5 22 2 114 -4 123 -3 6 -3 13 1 15 5 3 7 40 5 84 -1 43 -3 83 -2 88 0
6 1 36 3 68 2 31 -1 57 -6 57 -4 0 -5 6 -1 12 5 7 8 132 9 278 l0 265 -152
154 c-84 85 -153 159 -153 163 0 4 -7 8 -16 8 -8 0 -12 5 -9 10 3 6 1 10 -5
10 -6 0 -8 5 -5 10 4 6 2 9 -3 8 -13 -4 -98 83 -94 96 2 6 1 8 -3 4 -4 -4 -45
32 -91 80 -47 48 -149 153 -227 233 -79 80 -153 159 -165 174 -12 15 -22 24
-22 20 0 -5 -9 3 -21 16 -56 65 -138 146 -143 141 -3 -3 -6 0 -6 6 0 8 -200
221 -277 294 -10 10 -21 21 -26 25 -4 4 -41 43 -83 86 -69 70 -90 84 -119 77
-28 -6 -65 -5 -65 2 0 4 -12 3 -26 -2 -18 -7 -23 -7 -18 2 4 6 3 8 -4 4 -15
-9 -72 -15 -72 -7 0 7 -12 6 -92 -2 -16 -2 -28 0 -28 5 0 4 -12 3 -26 -2 -16
-7 -23 -7 -19 0 4 7 -2 7 -19 0 -15 -5 -28 -6 -31 0 -3 5 -11 7 -18 4 -24 -9
-117 -10 -117 -2 0 5 -4 7 -9 3 -17 -10 -71 -13 -71 -3 0 5 -4 7 -9 3 -17 -10
-71 -13 -71 -3 0 5 -4 7 -9 3 -14 -8 -71 -13 -71 -6 0 6 -39 6 -97 -2 -18 -2
-33 -1 -33 2 0 4 -13 6 -30 4 -16 -2 -43 -4 -60 -6 -16 -2 -30 1 -30 5 0 5 -8
4 -18 -1 -13 -7 -23 -6 -32 2 -7 7 -10 7 -7 1 4 -7 -11 -10 -43 -10 -28 1 -50
5 -50 10 0 5 -6 4 -12 -1 -15 -11 -109 -10 -128 2 -8 5 -11 4 -7 -1 7 -12
-213 -11 -233 1 -8 5 -11 4 -7 -2 4 -6 -13 -9 -43 -9 -28 1 -50 5 -50 10 0 5
-6 4 -12 -2 -14 -11 -57 -10 -75 1 -6 4 -14 4 -17 -1 -6 -10 -98 -8 -116 3 -8
5 -11 4 -7 -2 8 -12 -85 -12 -94 0 -3 4 -9 4 -13 0z"/>
</g>
</svg>
